<svg xmlns="http://www.w3.org/2000/svg" width="115.411" height="25.623" viewBox="0 0 115.411 25.623">
  <g id="Group_24144" data-name="Group 24144" transform="translate(19366.371 23691.17)">
    <g id="Group_24145" data-name="Group 24145" transform="translate(-19366.371 -23691.17)">
      <path id="Path_44809" data-name="Path 44809" d="M211.072,1159.5H193.99v25.623h25.623v-17.082Z" transform="translate(-193.99 -1159.5)" fill="#ff570a"/>
      <path id="Path_44810" data-name="Path 44810" d="M285.99,1168.041h8.541l-8.541-8.541Z" transform="translate(-268.908 -1159.5)" fill="#12355b"/>
    </g>
    <g id="Group_24146" data-name="Group 24146" transform="translate(-20194 -25381)">
      <path id="Path_44813" data-name="Path 44813" d="M1.248-11.328h7.6v2.3h-5.1v2.3h4.72v2.3H3.744V0h-2.5Zm9.488,0h7.7v2.3h-5.2v2.112h4.912v2.3H13.232v2.3H18.72V0H10.736Zm13.712,0h2.064L31.44,0H28.624l-.976-2.4h-4.4L22.3,0H19.552Zm.96,3.3-1.376,3.52H26.8ZM33.3-9.12H30.064v-2.208h8.96V-9.12H35.792V0H33.3ZM49.84-4.368a5.464,5.464,0,0,1-.3,1.856,4.084,4.084,0,0,1-.9,1.472,4.141,4.141,0,0,1-1.5.976,5.617,5.617,0,0,1-2.064.352,5.665,5.665,0,0,1-2.08-.352,4.141,4.141,0,0,1-1.5-.976,4.084,4.084,0,0,1-.9-1.472,5.464,5.464,0,0,1-.3-1.856v-6.96h2.5v6.864a2.758,2.758,0,0,0,.168.976,2.332,2.332,0,0,0,.472.776,2.143,2.143,0,0,0,.728.512,2.286,2.286,0,0,0,.92.184,2.229,2.229,0,0,0,.912-.184,2.164,2.164,0,0,0,.72-.512,2.332,2.332,0,0,0,.472-.776,2.758,2.758,0,0,0,.168-.976v-6.864h2.5Zm2.3-6.96h4.384a7.735,7.735,0,0,1,1.64.168,3.891,3.891,0,0,1,1.36.56,2.79,2.79,0,0,1,.928,1.056A3.576,3.576,0,0,1,60.8-7.888a3.325,3.325,0,0,1-.624,2.04,2.809,2.809,0,0,1-1.824,1.064L61.232,0H58.24L55.872-4.528H54.64V0h-2.5Zm2.5,4.688h1.472q.336,0,.712-.024a2.23,2.23,0,0,0,.68-.144,1.176,1.176,0,0,0,.5-.376,1.145,1.145,0,0,0,.2-.72,1.2,1.2,0,0,0-.176-.688,1.173,1.173,0,0,0-.448-.392,1.987,1.987,0,0,0-.624-.184,5.09,5.09,0,0,0-.688-.048H54.64Zm7.968-4.688h7.7v2.3H65.1v2.112h4.912v2.3H65.1v2.3h5.488V0H62.608Zm9.984,0h3.744a10.686,10.686,0,0,1,2.584.3,5.913,5.913,0,0,1,2.136.984A4.82,4.82,0,0,1,82.5-8.272a5.928,5.928,0,0,1,.536,2.64,5.387,5.387,0,0,1-.52,2.424,5.212,5.212,0,0,1-1.4,1.76,6.189,6.189,0,0,1-2.032,1.08A7.891,7.891,0,0,1,76.672,0h-4.08Zm2.5,9.024h1.3a6.976,6.976,0,0,0,1.608-.176,3.436,3.436,0,0,0,1.288-.584,2.8,2.8,0,0,0,.856-1.072,3.8,3.8,0,0,0,.312-1.624,3.166,3.166,0,0,0-.312-1.448,2.9,2.9,0,0,0-.84-1.016,3.676,3.676,0,0,0-1.24-.6,5.507,5.507,0,0,0-1.5-.2H75.088Z" transform="translate(860 1709)" fill="#ff570a"/>
      <path id="star" d="M8.67,2.887a.941.941,0,0,1,1.791,0l1.007,3.1a.942.942,0,0,0,.9.651h3.259a.942.942,0,0,1,.553,1.7l-2.636,1.915a.941.941,0,0,0-.342,1.053l1.007,3.1a.942.942,0,0,1-1.449,1.053l-2.636-1.916a.942.942,0,0,0-1.107,0L6.375,15.46a.942.942,0,0,1-1.449-1.053l1.007-3.1a.941.941,0,0,0-.342-1.053L2.955,8.34a.942.942,0,0,1,.553-1.7H6.767a.942.942,0,0,0,.9-.651Z" transform="translate(830.435 1694.764)" fill="#fff"/>
    </g>
  </g>
</svg>
