<svg xmlns="http://www.w3.org/2000/svg" width="200.002" height="37.369" viewBox="0 0 200.002 37.369">
  <g id="Leftronic_logo" data-name="Leftronic logo" transform="translate(-193.99 -1159.5)">
    <g id="Group_24133" data-name="Group 24133" transform="translate(245.433 1168.707)">
      <path id="Path_44800" data-name="Path 44800" d="M383.965,1195.192h3.975v14.37H395.3v3.669H383.965Z" transform="translate(-383.965 -1194.734)" fill="#ff570a"/>
      <path id="Path_44801" data-name="Path 44801" d="M438.158,1195.192h12.255v3.669h-8.28v3.363h7.822v3.669h-7.822v3.669h8.739v3.669H438.158Z" transform="translate(-423.483 -1194.734)" fill="#ff570a"/>
      <path id="Path_44802" data-name="Path 44802" d="M501.1,1195.192h12.1v3.669h-8.127v3.669h7.516v3.669h-7.516v7.032H501.1Z" transform="translate(-469.382 -1194.734)" fill="#ff570a"/>
      <path id="Path_44803" data-name="Path 44803" d="M559.029,1198.708h-5.147v-3.516h14.268v3.516H563v14.522h-3.974Z" transform="translate(-507.87 -1194.734)" fill="#ff570a"/>
      <path id="Path_44804" data-name="Path 44804" d="M617.672,1195.192h6.981a12.336,12.336,0,0,1,2.612.268,6.209,6.209,0,0,1,2.165.892,4.45,4.45,0,0,1,1.478,1.682,5.7,5.7,0,0,1,.548,2.637,5.3,5.3,0,0,1-.993,3.249,4.471,4.471,0,0,1-2.9,1.694l4.586,7.618h-4.764l-3.771-7.21h-1.962v7.21h-3.975Zm3.975,7.465h2.344q.535,0,1.134-.038a3.553,3.553,0,0,0,1.083-.229,1.873,1.873,0,0,0,.8-.6,1.822,1.822,0,0,0,.319-1.146,1.9,1.9,0,0,0-.281-1.1,1.871,1.871,0,0,0-.713-.624,3.177,3.177,0,0,0-.994-.293,8.076,8.076,0,0,0-1.1-.076h-2.6Z" transform="translate(-554.387 -1194.734)" fill="#ff570a"/>
      <path id="Path_44805" data-name="Path 44805" d="M678.734,1202.977a10.187,10.187,0,0,1,.726-3.923,8.6,8.6,0,0,1,2.026-2.994,8.924,8.924,0,0,1,3.083-1.9,11.8,11.8,0,0,1,7.8,0,8.927,8.927,0,0,1,3.083,1.9,8.6,8.6,0,0,1,2.026,2.994,10.961,10.961,0,0,1,0,7.847,8.6,8.6,0,0,1-2.026,2.994,8.911,8.911,0,0,1-3.083,1.9,11.8,11.8,0,0,1-7.8,0,8.908,8.908,0,0,1-3.083-1.9,8.6,8.6,0,0,1-2.026-2.994A10.184,10.184,0,0,1,678.734,1202.977Zm4.127,0a6.608,6.608,0,0,0,.4,2.332,5.33,5.33,0,0,0,1.134,1.834,5.168,5.168,0,0,0,1.771,1.21,6.351,6.351,0,0,0,4.612,0,5.171,5.171,0,0,0,1.771-1.21,5.347,5.347,0,0,0,1.134-1.834,7.044,7.044,0,0,0,0-4.65,5.328,5.328,0,0,0-1.134-1.847,5.18,5.18,0,0,0-1.771-1.21,6.356,6.356,0,0,0-4.612,0,5.177,5.177,0,0,0-1.771,1.21,5.311,5.311,0,0,0-1.134,1.847A6.643,6.643,0,0,0,682.861,1202.977Z" transform="translate(-598.914 -1193.5)" fill="#ff570a"/>
      <path id="Path_44806" data-name="Path 44806" d="M764.257,1195.192h5.4l7.669,12.535h.051v-12.535h3.975v18.038h-5.2l-7.873-12.841h-.051v12.841h-3.975Z" transform="translate(-661.279 -1194.734)" fill="#ff570a"/>
      <path id="Path_44807" data-name="Path 44807" d="M844.418,1195.192h3.974v18.038h-3.974Z" transform="translate(-719.733 -1194.734)" fill="#ff570a"/>
      <path id="Path_44808" data-name="Path 44808" d="M885.314,1198.646a3.9,3.9,0,0,0-1.439-1.1,4.791,4.791,0,0,0-1.975-.382,4.939,4.939,0,0,0-3.732,1.643,5.633,5.633,0,0,0-1.1,1.847,7.041,7.041,0,0,0,0,4.65,5.781,5.781,0,0,0,1.083,1.834,4.9,4.9,0,0,0,1.618,1.21,4.676,4.676,0,0,0,2,.433,4.479,4.479,0,0,0,2.166-.51,4.315,4.315,0,0,0,1.554-1.427l3.312,2.472a6.9,6.9,0,0,1-2.9,2.369,8.989,8.989,0,0,1-3.618.764,11.107,11.107,0,0,1-3.9-.663,8.908,8.908,0,0,1-3.083-1.9,8.6,8.6,0,0,1-2.025-2.994,10.964,10.964,0,0,1,0-7.847,8.605,8.605,0,0,1,2.025-2.994,8.925,8.925,0,0,1,3.083-1.9,11.11,11.11,0,0,1,3.9-.662,9.612,9.612,0,0,1,1.592.14,8.6,8.6,0,0,1,1.63.446,7.249,7.249,0,0,1,1.542.815,6.146,6.146,0,0,1,1.325,1.248Z" transform="translate(-740.247 -1193.5)" fill="#ff570a"/>
    </g>
    <g id="Group_24134" data-name="Group 24134" transform="translate(193.99 1159.5)">
      <path id="Path_44809" data-name="Path 44809" d="M218.9,1159.5H193.99v37.369h37.369v-24.912Z" transform="translate(-193.99 -1159.5)" fill="#ff570a"/>
      <path id="Path_44810" data-name="Path 44810" d="M285.99,1171.956h12.456L285.99,1159.5Z" transform="translate(-261.077 -1159.5)" fill="#12355b"/>
      <path id="Path_44811" data-name="Path 44811" d="M229.446,1194.956V1182.5H216.99v24.913H241.9v-12.456Z" transform="translate(-210.762 -1176.272)" fill="#fff"/>
    </g>
  </g>
</svg>
